<?xml version="1.0" encoding="UTF-8" standalone="no"?>
<!-- Created with Inkscape (http://www.inkscape.org/) -->

<svg
   width="73.266541mm"
   height="72.22435mm"
   viewBox="0 0 73.266541 72.22435"
   version="1.1"
   id="svg1"
   xml:space="preserve"
   inkscape:version="1.3.2 (091e20ef0f, 2023-11-25, custom)"
   sodipodi:docname="wu-compass.svg"
   xmlns:inkscape="http://www.inkscape.org/namespaces/inkscape"
   xmlns:sodipodi="http://sodipodi.sourceforge.net/DTD/sodipodi-0.dtd"
   xmlns="http://www.w3.org/2000/svg"
   xmlns:svg="http://www.w3.org/2000/svg"><sodipodi:namedview
     id="namedview1"
     pagecolor="#ffffff"
     bordercolor="#000000"
     borderopacity="0.25"
     inkscape:showpageshadow="2"
     inkscape:pageopacity="0.0"
     inkscape:pagecheckerboard="0"
     inkscape:deskcolor="#d1d1d1"
     inkscape:document-units="mm"
     inkscape:zoom="1.1893651"
     inkscape:cx="181.6095"
     inkscape:cy="54.230615"
     inkscape:window-width="1941"
     inkscape:window-height="1379"
     inkscape:window-x="1681"
     inkscape:window-y="43"
     inkscape:window-maximized="1"
     inkscape:current-layer="layer1" /><defs
     id="defs1" /><g
     inkscape:label="Layer 1"
     inkscape:groupmode="layer"
     id="layer1"
     transform="translate(-46.504009,-44.603855)"><path
       style="fill:#000000"
       d="m 82.150217,111.78538 c -0.461921,-2.83691 -0.897738,-5.40443 -0.968483,-5.70561 l -0.128627,-0.54759 -1.396949,-0.17453 C 76.187764,104.9243 71.668109,103.13513 68.753674,101.04175 63.232806,97.076226 59.68476,91.324466 58.543698,84.490296 l -0.310493,-1.85964 -3.949967,-0.67182 c -2.172482,-0.3695 -4.811551,-0.82022 -5.864598,-1.0016 l -1.914631,-0.32978 4.212188,-0.71096 c 2.316703,-0.39103 4.963238,-0.83688 5.881189,-0.99078 l 1.669001,-0.27982 0.322423,-2.04909 c 0.588993,-3.74322 2.546933,-8.223399 4.825294,-11.041294 0.668293,-0.826549 1.362244,-1.701125 1.542114,-1.943502 l 0.327037,-0.440685 -2.752236,-0.56348 C 61.01729,62.297931 59.498651,61.959071 59.156267,61.854822 l -0.622515,-0.189543 2.362892,-2.60062 c 1.29959,-1.430341 2.409238,-2.60062 2.465885,-2.60062 0.05665,0 0.511169,1.292375 1.010049,2.871946 0.49888,1.57957 1.010961,3.037748 1.137959,3.240394 l 0.230905,0.368449 1.103216,-1.01546 c 3.18288,-2.929695 8.369328,-5.299942 12.8115,-5.854955 l 1.396949,-0.174537 0.128627,-0.547592 c 0.07075,-0.301176 0.506562,-2.868697 0.968483,-5.705603 0.461921,-2.836906 0.892285,-5.105582 0.956366,-5.041501 0.06408,0.06408 0.531412,2.611999 1.038514,5.662042 l 0.922003,5.545532 1.852041,0.310093 c 3.62798,0.607446 7.461986,2.090456 10.175366,3.935875 1.76851,1.202796 5.056263,4.440561 6.370563,6.273701 2.09416,2.920863 3.88086,7.437153 4.31413,10.904943 l 0.17485,1.3994 1.69606,0.28439 c 0.93284,0.15641 3.59155,0.60431 5.90825,0.99534 l 4.21219,0.71096 -1.91463,0.32978 c -1.05305,0.18138 -3.69212,0.6321 -5.8646,1.0016 l -3.94997,0.67182 -0.31049,1.85964 c -0.92856,5.56145 -3.26131,10.0961 -7.1589,13.91629 -2.250493,2.205794 -3.771903,3.301014 -6.329823,4.556674 -2.395268,1.17581 -4.63683,1.8962 -7.274317,2.3378 l -1.90072,0.31825 -0.922003,5.54553 c -0.507102,3.05004 -0.974434,5.59796 -1.038514,5.66204 -0.06408,0.0641 -0.494445,-2.2046 -0.956366,-5.0415 z m -1.434233,-8.54053 c -0.100412,-0.80733 -0.225981,-1.53895 -0.279041,-1.62581 -0.05306,-0.0869 -0.587251,-0.2337 -1.187089,-0.32631 -0.599839,-0.0926 -1.643727,-0.34915 -2.319753,-0.57011 -0.676025,-0.22095 -1.264237,-0.36131 -1.307137,-0.3119 -0.340556,0.39221 -1.135093,2.64097 -0.979588,2.77251 0.367363,0.31074 4.736522,1.44772 5.779013,1.50386 l 0.476162,0.0256 z m 8.292829,0.77894 c 0.91264,-0.21773 1.905016,-0.52515 2.205279,-0.68314 l 0.545933,-0.28726 -0.607706,-1.36834 -0.607706,-1.36834 -0.448795,0.1771 c -0.246837,0.0974 -1.195501,0.35145 -2.108142,0.56455 -0.91264,0.2131 -1.791495,0.42525 -1.953009,0.47144 -0.161515,0.0462 -0.370943,0.58021 -0.465396,1.18671 -0.09445,0.6065 -0.232346,1.31582 -0.306429,1.57626 l -0.134697,0.47353 1.110661,-0.17332 c 0.610863,-0.0953 1.857366,-0.35146 2.770007,-0.56919 z m -2.256193,-3.50001 c 8.229467,-1.580164 14.61225,-7.962954 16.19241,-16.192414 1.49571,-7.78962 -1.96037,-15.857456 -8.719563,-20.354867 -6.840072,-4.551228 -15.336305,-4.551228 -22.176379,0 -9.341549,6.215657 -11.84132,18.524747 -5.651339,27.827717 4.496268,6.75747 12.567233,10.214894 20.354871,8.719564 z M 76.421365,91.629426 c 0.05828,-0.31592 -0.93711,-4.81914 -2.211968,-10.00715 l -2.317924,-9.43277 -0.415839,-0.45949 -0.41584,-0.4595 h 2.209481 c 2.156046,0 2.497219,0.12072 1.933732,0.6842 l -0.275749,0.27575 1.56716,6.98709 c 0.861938,3.84289 1.654751,7.20912 1.761806,7.4805 l 0.194645,0.49342 1.492118,-7.48034 1.492117,-7.48033 -0.299854,-0.48015 -0.299855,-0.48014 h 2.29972 c 2.206195,0 2.587059,0.12049 2.057729,0.65097 l -0.241992,0.24252 1.575309,7.33942 c 0.86642,4.03668 1.635864,7.33879 1.709875,7.33801 0.07401,-7.7e-4 0.836393,-3.30351 1.694181,-7.33942 l 1.559614,-7.33801 -0.219373,-0.24252 c -0.474557,-0.52463 -0.145533,-0.65097 1.695258,-0.65097 1.053051,0 1.914631,0.0771 1.914631,0.17136 0,0.0943 -0.16003,0.35273 -0.35561,0.57439 -0.32111,0.36391 -4.750072,18.53671 -4.750072,19.49033 0,0.21966 0.143597,0.45733 0.319105,0.52815 0.175508,0.0708 -0.700142,0.13783 -1.945889,0.14891 l -2.264994,0.0202 0.281661,-0.33939 0.281661,-0.33938 -1.601967,-7.18155 c -0.881083,-3.94985 -1.65758,-7.23716 -1.725549,-7.30513 -0.06797,-0.068 -0.789257,3.21833 -1.60286,7.30287 l -1.479278,7.42646 0.337762,0.21415 0.337763,0.21415 -2.198336,0.004 -2.198335,0.004 z m -7.090879,6.98357 c 0.433017,-0.54673 0.787304,-1.06505 0.787304,-1.15182 0,-0.0868 -0.834109,-1.00005 -1.853576,-2.02949 l -1.853575,-1.8717 -1.071786,0.78979 c -0.589482,0.43439 -1.076468,0.93155 -1.082192,1.10479 -0.0117,0.35403 3.699236,4.15248 4.056806,4.15248 0.126343,0 0.584002,-0.44732 1.017019,-0.99405 z m 30.779074,-0.92469 c 1.05531,-1.05532 1.91426,-2.0605 1.90879,-2.23374 -0.005,-0.17324 -0.49371,-0.66939 -1.08496,-1.10256 l -1.075003,-0.78756 -1.93578,1.96 -1.93578,1.96 0.7688,1.0613 c 0.42284,0.58372 0.91874,1.0613 1.10199,1.0613 0.18325,0 1.19662,-0.86343 2.251943,-1.91874 z m -37.055324,-9.24902 0.467328,-0.13505 -0.157612,-0.53923 c -0.08669,-0.29658 -0.337352,-1.28594 -0.557034,-2.19858 -0.219682,-0.91264 -0.434712,-1.78498 -0.477845,-1.93852 -0.07703,-0.27424 -2.917995,-0.96992 -3.123136,-0.76478 -0.133588,0.13359 0.647139,4.32563 0.945161,5.07496 0.123397,0.31026 0.288546,0.76777 0.366997,1.01669 l 0.142639,0.45259 0.963087,-0.41652 c 0.529698,-0.22908 1.173385,-0.47729 1.430415,-0.55156 z m 43.280864,-1.4688 c 0.28065,-1.12325 0.58583,-2.53356 0.67817,-3.13402 l 0.16789,-1.09174 -1.10854,0.17147 c -0.6097,0.0943 -1.36702,0.26684 -1.68294,0.3834 l -0.57439,0.21192 v 0.47033 c 0,0.25868 -0.22333,1.32099 -0.4963,2.36069 -0.27296,1.0397 -0.474,1.90221 -0.44674,1.91669 0.78181,0.41537 2.64885,1.02843 2.77748,0.91201 0.0963,-0.0872 0.40472,-1.0775 0.68537,-2.20075 z m -44.354054,-8.9567 0.415273,-0.12031 0.166316,-1.07774 c 0.09148,-0.59276 0.347098,-1.63086 0.568052,-2.30689 0.220954,-0.67602 0.361311,-1.26951 0.311904,-1.31886 -0.04941,-0.0494 -0.695966,-0.32863 -1.436798,-0.6206 l -1.346969,-0.53087 -0.240132,0.6316 c -0.333745,0.87781 -0.944645,3.3578 -1.156921,4.69659 l -0.177292,1.11815 1.240646,-0.17538 c 0.682357,-0.0965 1.42752,-0.22951 1.655921,-0.29569 z m 45.016434,-0.68027 c -0.26745,-1.59977 -1.14579,-4.88409 -1.36677,-5.11068 -0.10537,-0.10805 -0.79518,0.0544 -1.5329,0.36097 l -1.34131,0.55742 0.1528,0.53253 c 0.57263,1.99565 0.90599,3.38371 0.90599,3.77235 v 0.45207 l 0.57439,0.12257 c 0.31592,0.0674 0.80415,0.17115 1.08496,0.23053 0.28081,0.0594 0.77914,0.12129 1.1074,0.13758 l 0.59682,0.0296 z M 69.500581,62.919918 c -0.43277,-0.591251 -0.928598,-1.079481 -1.101842,-1.084957 -0.411034,-0.01299 -4.155639,3.73202 -4.142078,4.142528 0.0057,0.173243 0.491017,0.669115 1.07843,1.101938 l 1.068024,0.78695 1.94216,-1.935729 1.942161,-1.935729 z m 31.611529,3.90287 0.99844,-0.854581 -0.95152,-1.161205 c -1.10836,-1.352614 -3.117293,-3.05963 -3.457913,-2.938241 -0.12946,0.04614 -0.56772,0.543397 -0.97391,1.105022 l -0.73853,1.021136 1.80721,1.830759 c 0.99397,1.006918 1.92209,1.835469 2.0625,1.841225 0.14041,0.0058 0.704583,-0.374096 1.253723,-0.844115 z M 78.286881,60.385667 c 0.91264,-0.219682 1.788567,-0.43609 1.946504,-0.480907 0.295028,-0.08372 0.755273,-2.866311 0.513999,-3.107585 -0.154972,-0.154973 -4.53799,0.763021 -5.592968,1.171409 l -0.707266,0.273787 0.415913,0.961643 c 0.228753,0.528904 0.476684,1.171942 0.550959,1.428972 l 0.135046,0.467328 0.539233,-0.157613 c 0.296578,-0.08669 1.285939,-0.337352 2.19858,-0.557034 z m 12.759688,-0.411472 c 0.262539,-0.596727 0.514554,-1.240205 0.560035,-1.429953 l 0.08269,-0.344996 -1.148779,-0.365635 c -1.819013,-0.578958 -4.926728,-1.142453 -5.114785,-0.927418 -0.0943,0.107831 -0.04467,0.823523 0.110285,1.590427 l 0.281745,1.394371 1.531704,0.310692 c 0.842438,0.170881 1.818899,0.426435 2.169915,0.567899 0.970728,0.391216 1.01535,0.367976 1.527188,-0.795387 z"
       id="path1" /></g></svg>
